<?xml version="1.0" encoding="UTF-8" standalone="no"?>
<!-- Created with Inkscape (http://www.inkscape.org/) -->

<svg
   xmlns:dc="http://purl.org/dc/elements/1.1/"
   xmlns:cc="http://creativecommons.org/ns#"
   xmlns:rdf="http://www.w3.org/1999/02/22-rdf-syntax-ns#"
   xmlns:svg="http://www.w3.org/2000/svg"
   xmlns="http://www.w3.org/2000/svg"
   xmlns:sodipodi="http://sodipodi.sourceforge.net/DTD/sodipodi-0.dtd"
   xmlns:inkscape="http://www.inkscape.org/namespaces/inkscape"
   width="130mm"
   height="50mm"
   viewBox="0 0 460.62992 177.16534"
   id="svg2"
   version="1.1"
   inkscape:version="0.91 r13725"
   sodipodi:docname="drawing.svg">
  <defs
     id="defs4" />
  <sodipodi:namedview
     id="base"
     pagecolor="#ffffff"
     bordercolor="#666666"
     borderopacity="1.0"
     inkscape:pageopacity="0"
     inkscape:pageshadow="2"
     inkscape:zoom="0.24748737"
     inkscape:cx="-360.56774"
     inkscape:cy="721.83078"
     inkscape:document-units="px"
     inkscape:current-layer="layer1"
     showgrid="false"
     inkscape:window-width="1920"
     inkscape:window-height="1011"
     inkscape:window-x="1920"
     inkscape:window-y="0"
     inkscape:window-maximized="1"
     units="mm"
     width="100mm" />
  <metadata
     id="metadata7">
    <rdf:RDF>
      <cc:Work
         rdf:about="">
        <dc:format>image/svg+xml</dc:format>
        <dc:type
           rdf:resource="http://purl.org/dc/dcmitype/StillImage" />
        <dc:title></dc:title>
      </cc:Work>
    </rdf:RDF>
  </metadata>
  <g
     inkscape:label="Layer 1"
     inkscape:groupmode="layer"
     id="layer1"
     transform="translate(0,-875.19683)">
    <flowRoot
       xml:space="preserve"
       id="flowRoot3336"
       style="font-style:normal;font-weight:normal;font-size:40px;line-height:125%;font-family:sans-serif;letter-spacing:0px;word-spacing:0px;fill:#000000;fill-opacity:1;stroke:none;stroke-width:1px;stroke-linecap:butt;stroke-linejoin:miter;stroke-opacity:1"><flowRegion
         id="flowRegion3338"><rect
           id="rect3340"
           width="397.14285"
           height="308.57144"
           x="74.285713"
           y="106.64792" /></flowRegion><flowPara
         id="flowPara3342"></flowPara></flowRoot>    <g
       style="font-style:normal;font-weight:normal;font-size:40px;line-height:125%;font-family:sans-serif;letter-spacing:0px;word-spacing:0px;fill:#00ffff;fill-opacity:1;stroke:none;stroke-width:1px;stroke-linecap:butt;stroke-linejoin:miter;stroke-opacity:1"
       id="flowRoot3344"
       transform="matrix(2.0916845,0,0,2.0916845,-422.60313,549.30527)">
      <path
         d="m 232.91602,206.50293 q -10.57618,-14.29688 -23.81836,-23.81836 l 3.48632,-3.54492 q 13.85743,10.45898 24.52149,23.75976 l -4.18945,3.60352 z"
         style="font-style:normal;font-variant:normal;font-weight:normal;font-stretch:normal;font-size:60px;line-height:125%;font-family:'Noto Sans';-inkscape-font-specification:'Noto Sans, Normal';text-align:start;writing-mode:lr-tb;text-anchor:start;fill:#00ffff;fill-opacity:1"
         id="path3353"
         inkscape:connector-curvature="0" />
      <path
         d="m 244.86914,199.06152 q 0,-7.76367 2.25586,-14.53125 2.28516,-6.76757 6.5625,-11.86523 l 4.98047,0 q -4.21875,5.6543 -6.35742,12.42187 -2.10938,6.76758 -2.10938,13.91602 0,7.03125 2.16797,13.74023 2.16797,6.70899 6.24023,12.2461 l -4.92187,0 q -4.30664,-4.98047 -6.5625,-11.63086 -2.25586,-6.65039 -2.25586,-14.29688 z"
         style="font-style:normal;font-variant:normal;font-weight:normal;font-stretch:normal;font-size:60px;line-height:125%;font-family:'Noto Sans';-inkscape-font-specification:'Noto Sans, Normal';text-align:start;writing-mode:lr-tb;text-anchor:start;fill:#00ffff;fill-opacity:1"
         id="path3355"
         inkscape:connector-curvature="0" />
      <path
         d="m 283.92187,179.13965 -3.54492,0 q -2.19726,-1.75781 -4.83398,-4.54102 -2.60742,-2.8125 -3.69141,-4.45312 l 0,-0.61524 6.29883,0 q 0.9375,1.9336 2.66602,4.62891 1.72851,2.66602 3.10546,4.24805 l 0,0.73242 z"
         style="font-style:normal;font-variant:normal;font-weight:normal;font-stretch:normal;font-size:60px;line-height:125%;font-family:'Noto Sans';-inkscape-font-specification:'Noto Sans, Normal';text-align:start;writing-mode:lr-tb;text-anchor:start;fill:#00ffff;fill-opacity:1"
         id="path3357"
         inkscape:connector-curvature="0" />
      <path
         d="m 335.45508,226.77637 -5.15625,0 0,-11.2793 -29.47266,0 0,11.2793 -5.15625,0 0,-16.08399 3.31055,0 q 4.33594,-7.38281 7.5,-17.90039 3.16406,-10.51758 3.7207,-20.12695 l 19.80469,0 0,38.02734 5.44922,0 0,16.08399 z m -10.81055,-16.08399 0,-33.16406 -9.69726,0 q -0.55665,7.29492 -3.57422,17.02148 -2.98828,9.72657 -6.70899,16.14258 l 19.98047,0 z"
         style="font-style:normal;font-variant:normal;font-weight:normal;font-stretch:normal;font-size:60px;line-height:125%;font-family:'Noto Sans';-inkscape-font-specification:'Noto Sans, Normal';text-align:start;writing-mode:lr-tb;text-anchor:start;fill:#00ffff;fill-opacity:1"
         id="path3359"
         inkscape:connector-curvature="0" />
      <path
         d="m 348.14062,178.40723 q 1.11329,-1.40625 2.8125,-3.98438 1.72852,-2.60742 2.9004,-4.89258 l 6.35742,0 0,0.61524 q -1.28907,1.875 -4.01367,4.71679 -2.72461,2.8418 -4.57032,4.27735 l -3.48633,0 0,-0.73242 z"
         style="font-style:normal;font-variant:normal;font-weight:normal;font-stretch:normal;font-size:60px;line-height:125%;font-family:'Noto Sans';-inkscape-font-specification:'Noto Sans, Normal';text-align:start;writing-mode:lr-tb;text-anchor:start;fill:#00ffff;fill-opacity:1"
         id="path3361"
         inkscape:connector-curvature="0" />
      <path
         d="m 387.19336,199.06152 q 0,7.70508 -2.28516,14.35547 -2.25586,6.65039 -6.5332,11.57227 l -4.92188,0 q 4.07227,-5.50781 6.24024,-12.2168 2.16797,-6.73828 2.16797,-13.76953 0,-7.14844 -2.13867,-13.91602 -2.10938,-6.76757 -6.32813,-12.42187 l 4.98047,0 q 4.30664,5.12695 6.5625,11.92383 2.25586,6.76758 2.25586,14.47265 z"
         style="font-style:normal;font-variant:normal;font-weight:normal;font-stretch:normal;font-size:60px;line-height:125%;font-family:'Noto Sans';-inkscape-font-specification:'Noto Sans, Normal';text-align:start;writing-mode:lr-tb;text-anchor:start;fill:#00ffff;fill-opacity:1"
         id="path3363"
         inkscape:connector-curvature="0" />
      <path
         d="m 393.60937,211.4248 q 14.17969,-10.75195 17.05079,-39.19921 l 4.54101,1.64062 q -3.6914,30.05859 -18.22265,41.45508 l -3.36915,-3.89649 z"
         style="font-style:normal;font-variant:normal;font-weight:normal;font-stretch:normal;font-size:60px;line-height:125%;font-family:'Noto Sans';-inkscape-font-specification:'Noto Sans, Normal';text-align:start;writing-mode:lr-tb;text-anchor:start;fill:#00ffff;fill-opacity:1"
         id="path3365"
         inkscape:connector-curvature="0" />
    </g>
  </g>
</svg>
